<svg width="720" height="1024" viewBox="0 0 720 1024" fill="none" xmlns="http://www.w3.org/2000/svg">
<rect x="30" y="30" width="660" height="964" rx="24" fill="#ECEFF2"/>
<path opacity="0.5" d="M193.21 548.93H166.73V560.12H193.21V548.93Z" fill="#D9DFE6"/>
<path opacity="0.5" d="M178.44 563.04H151.96V574.23H178.44V563.04Z" fill="#D9DFE6"/>
<path opacity="0.5" d="M207.98 563.04H181.5V574.23H207.98V563.04Z" fill="#D9DFE6"/>
<path opacity="0.5" d="M539.27 249.84H512.79V261.03H539.27V249.84Z" fill="#D9DFE6"/>
<path opacity="0.5" d="M554.04 263.95H527.56V275.14H554.04V263.95Z" fill="#D9DFE6"/>
<path opacity="0.5" d="M178.44 249.86H151.96V261.05H178.44V249.86Z" fill="#D9DFE6"/>
<path opacity="0.5" d="M527.57 560.03H554.05V548.84H527.57V560.03Z" fill="#D9DFE6"/>
<path opacity="0.5" d="M503 385.3H529.48V374.11H503V385.3Z" fill="#D9DFE6"/>
<path opacity="0.5" d="M517.77 371.189H544.25V359.999H517.77V371.189Z" fill="#D9DFE6"/>
<path d="M196 95H195V363H196V95Z" fill="url(#paint0_linear_4_78671)"/>
<path d="M232.84 398.829L229.85 405.399H161.5L158.52 398.829L187.62 378.689H203.74L232.84 398.829Z" fill="#D9DFE6"/>
<path d="M205.76 359.29L203.74 378.69H187.62L185.6 359.29H205.76Z" fill="#C6CED9"/>
<path d="M232.83 398.84L229.84 405.41H161.49L158.52 398.84H232.83Z" fill="#C6CED9"/>
<path d="M306.36 77H305.36V320H306.36V77Z" fill="url(#paint1_linear_4_78671)"/>
<path d="M343.32 359.64L340.33 366.21H271.98L269 359.64L298.1 339.5H314.22L343.32 359.64Z" fill="#D9DFE6"/>
<path d="M316.24 320.09L314.22 339.5H298.1L296.08 320.09H316.24Z" fill="#C6CED9"/>
<path d="M343.32 359.64L340.33 366.21H271.98L269 359.64H343.32Z" fill="#C6CED9"/>
<path opacity="0.5" d="M592 804C592 820.024 484.108 833 351 833C217.892 833 110 820.024 110 804C110 787.976 217.892 775 351 775C484.108 775 592 787.976 592 804Z" fill="#D9DFE6"/>
<path d="M509.22 647.73C509.951 652.785 509.69 657.934 508.45 662.89C507.869 665.185 507.093 667.427 506.13 669.59C504.92 672.37 503.66 675.07 503.97 678.11C504.26 678.3 503.26 678.27 503.22 677.98C495.11 673.36 484.71 672.51 478.47 664.98C475.658 661.3 473.88 656.937 473.32 652.34C472.55 647.4 472.32 641.94 473.61 637.08C474.68 633 477.09 629 481 627C484.91 625 490.22 625.1 494.42 626.4C503.43 629.19 507.94 639 509.22 647.73Z" fill="#96D3FF"/>
<path d="M513.38 707.759C512.28 704.073 511.163 700.389 510.03 696.709C507.81 689.499 505.5 682.319 502.93 675.219C501.397 670.973 499.78 666.763 498.08 662.589C498.28 659.961 498.613 657.344 499.08 654.749C499.76 651.609 500.74 648.569 501.66 645.499C501.72 645.309 501.41 645.209 501.33 645.389C499.51 649.629 497.13 655.049 497.08 660.069C495.08 655.349 492.953 650.699 490.7 646.119C490.421 642.246 490.521 638.354 491 634.499C491 634.467 490.988 634.436 490.967 634.411C490.946 634.386 490.917 634.37 490.886 634.364C490.854 634.358 490.821 634.363 490.793 634.379C490.764 634.394 490.742 634.419 490.73 634.449C490.037 637.819 489.769 641.263 489.93 644.699C488.19 641.259 486.347 637.863 484.4 634.509C484.22 634.209 483.81 634.509 483.96 634.819C487.01 640.689 489.83 646.679 492.49 652.749C488.756 649.511 484.439 647.013 479.77 645.389C479.57 645.309 479.42 645.609 479.62 645.689C484.716 647.877 489.376 650.963 493.38 654.799C495.28 659.239 497.097 663.719 498.83 668.239C493.75 663.239 486.83 659.989 480.09 658.239C479.86 658.179 479.8 658.529 480.02 658.589C487.8 660.929 493.83 665.339 499.75 670.589C500.43 672.419 501.11 674.249 501.75 676.079C504.25 683.026 506.633 690.026 508.9 697.079C509.993 700.413 511.067 703.786 512.12 707.199C513.25 710.839 514.12 714.679 515.62 718.199C515.76 718.529 516.36 718.459 516.28 718.049C515.49 714.572 514.523 711.137 513.38 707.759Z" fill="#39434F"/>
<path d="M499.93 640.63C498.493 642.844 497.501 645.317 497.01 647.91C497.01 647.98 497.1 648.02 497.13 647.91C498.033 645.466 499.088 643.081 500.29 640.77C500.42 640.57 500.07 640.42 499.93 640.63Z" fill="#39434F"/>
<path d="M485.46 657.53C483.205 656.28 480.742 655.45 478.19 655.08C478.12 655.08 478.08 655.17 478.19 655.2C479.36 655.68 480.59 656.02 481.77 656.48C482.95 656.94 484.12 657.48 485.32 657.91C485.366 657.914 485.412 657.903 485.451 657.878C485.489 657.853 485.519 657.817 485.535 657.773C485.551 657.73 485.552 657.683 485.539 657.639C485.525 657.595 485.497 657.557 485.46 657.53Z" fill="#39434F"/>
<path d="M481.39 637.21C480.659 636.652 479.875 636.166 479.05 635.76C479.023 635.75 478.993 635.749 478.965 635.759C478.938 635.768 478.914 635.786 478.898 635.81C478.882 635.834 478.874 635.863 478.876 635.892C478.879 635.921 478.891 635.948 478.91 635.97C479.632 636.537 480.405 637.036 481.22 637.46C481.37 637.55 481.54 637.3 481.39 637.21Z" fill="#39434F"/>
<path d="M536.56 675.28C530.72 677.01 524.85 678.61 519.01 680.33C518.5 680.48 508.63 661.56 512.2 651.81C513.899 647.394 516.563 643.413 519.997 640.159C523.431 636.904 527.549 634.458 532.05 633C536.22 631.58 541.34 630.39 545.75 631.36C549.67 632.23 552.43 635.43 553.75 639.12C555.48 644.12 554.9 650.12 553.96 655.21C553.211 660.01 551.23 664.534 548.21 668.34C545.07 672 541.11 673.93 536.56 675.28Z" fill="#96D3FF"/>
<path d="M545 657.29C541.307 659.097 537.475 660.606 533.54 661.8C530.92 662.507 528.364 663.433 525.9 664.57C528.37 659.07 531.07 653.69 533.95 648.35C537.72 647.26 541.69 645.56 544.53 642.89C544.547 642.876 544.56 642.859 544.57 642.84C544.58 642.821 544.586 642.8 544.588 642.779C544.59 642.758 544.587 642.736 544.581 642.716C544.574 642.695 544.564 642.676 544.55 642.66C544.536 642.643 544.519 642.63 544.5 642.62C544.481 642.61 544.461 642.604 544.439 642.602C544.418 642.6 544.396 642.603 544.376 642.609C544.355 642.616 544.337 642.626 544.32 642.64C541.21 644.84 537.77 646.16 534.32 647.64C535.1 646.2 535.88 644.77 536.68 643.34C536.9 642.94 536.36 642.55 536.09 642.93C533.02 647.389 530.247 652.046 527.79 656.87C527.16 652.644 526.959 648.366 527.19 644.1C527.19 643.99 527.04 643.98 527.02 644.1C526.295 648.742 526.342 653.473 527.16 658.1C525.16 662.19 523.25 666.38 521.57 670.62C520.91 668.07 520.04 665.56 519.46 662.99C518.577 659.313 518.294 655.517 518.62 651.75C518.62 651.64 518.47 651.63 518.45 651.75C517.447 658.741 518.327 665.873 521 672.41C520 674.96 519.09 677.52 518.24 680.09C513.836 693.184 511.226 706.815 510.48 720.61C510.48 720.676 510.506 720.74 510.553 720.787C510.6 720.833 510.664 720.86 510.73 720.86C510.796 720.86 510.86 720.833 510.907 720.787C510.954 720.74 510.98 720.676 510.98 720.61C512.51 707.015 515.425 693.612 519.68 680.61C521.37 675.52 523.32 670.61 525.46 665.72C528.91 664.72 532.35 663.32 535.74 662.15C539.13 661.128 542.329 659.557 545.21 657.5C545.238 657.472 545.254 657.434 545.254 657.395C545.254 657.355 545.238 657.318 545.21 657.29C545.182 657.262 545.144 657.246 545.105 657.246C545.066 657.246 545.028 657.262 545 657.29Z" fill="#39434F"/>
<path d="M550.47 651.8C546.9 653.07 543.47 654.85 539.95 656.14C539.78 656.2 539.88 656.46 540.04 656.43C543.82 655.65 547.56 654.48 550.61 652C550.72 651.91 550.6 651.75 550.47 651.8Z" fill="#39434F"/>
<path d="M521.3 644.09C521.35 643.9 521.07 643.79 521.01 643.99C520.01 647.28 519.36 650.78 520.31 654.14C520.31 654.27 520.56 654.28 520.56 654.14C520.73 650.73 520.54 647.43 521.3 644.09Z" fill="#39434F"/>
<path d="M536.06 636.49C534.923 638.126 534.376 640.101 534.51 642.09C534.51 642.21 534.72 642.28 534.75 642.14C535.19 640.25 535.92 638.54 536.5 636.71C536.516 636.653 536.513 636.593 536.489 636.54C536.466 636.486 536.424 636.442 536.372 636.416C536.32 636.39 536.26 636.383 536.203 636.396C536.146 636.41 536.095 636.443 536.06 636.49Z" fill="#39434F"/>
<path d="M467.09 683.62C468.8 689.06 472.87 696.57 479.31 696.62C483.49 696.62 487.69 696.16 491.88 696.1C496.36 696.03 500.88 696.04 505.33 696.31C505.7 696.31 504.79 682.88 494.02 676.31C491.02 674.47 487.31 673.89 483.88 673.15C479.951 672.218 475.917 671.798 471.88 671.9C469.4 672 467.34 672.52 466.46 675.06C465.58 677.6 466.26 681 467.09 683.62Z" fill="#96D3FF"/>
<path d="M471.72 676.82C474.34 677.49 476.98 678.27 479.61 679.1C478.924 678.356 478.2 677.648 477.44 676.98C476.31 676.05 475.07 675.3 473.86 674.47C473.76 674.41 473.86 674.21 473.95 674.26C476.499 675.318 478.699 677.072 480.3 679.32C483.58 680.37 486.82 681.54 489.94 682.82C492.098 683.706 494.167 684.794 496.12 686.07C495.491 684.712 494.742 683.413 493.88 682.19C492.45 680.33 490.52 679.3 488.65 677.99C488.618 677.964 488.597 677.928 488.59 677.888C488.583 677.848 488.59 677.807 488.61 677.772C488.631 677.737 488.663 677.71 488.702 677.697C488.74 677.684 488.782 677.685 488.82 677.7C490.777 678.551 492.535 679.8 493.981 681.369C495.427 682.938 496.531 684.791 497.22 686.81C499.462 688.421 501.512 690.283 503.33 692.36C510.46 700.46 516.08 711.24 516.1 722.23C516.1 722.49 515.68 722.57 515.63 722.29C513.795 711.514 509.098 701.429 502.03 693.09C501.52 692.49 501.03 691.93 500.46 691.38C498.508 691.113 496.541 690.966 494.57 690.94C492.28 690.94 490 691.28 487.72 691.46C483.96 691.77 479.8 691.81 476.4 689.92C476.25 689.84 476.4 689.58 476.52 689.64C484.09 692.39 492.02 688.9 499.6 690.54C496.363 687.452 492.569 685.005 488.42 683.33L487.72 683.05C482.87 683.63 477.72 684.9 473.02 683.32C473.006 683.316 472.992 683.309 472.98 683.3C472.968 683.291 472.959 683.279 472.951 683.266C472.944 683.253 472.939 683.239 472.937 683.224C472.935 683.209 472.936 683.194 472.94 683.18C472.944 683.165 472.951 683.152 472.96 683.14C472.969 683.128 472.981 683.118 472.994 683.111C473.007 683.103 473.021 683.099 473.036 683.097C473.051 683.095 473.066 683.096 473.08 683.1C477.65 684.24 482.03 682.8 486.54 682.57C481.63 680.66 476.62 679.14 471.7 677.24C471.28 677.08 471.27 676.7 471.72 676.82Z" fill="#39434F"/>
<path d="M469.58 681.599C471.926 681.904 474.286 682.084 476.65 682.139C476.7 682.139 476.72 682.219 476.65 682.229C474.273 682.671 471.823 682.517 469.52 681.779C469.41 681.749 469.47 681.579 469.58 681.599Z" fill="#39434F"/>
<path d="M485.54 676.939C486.848 677.525 488.034 678.349 489.04 679.369C489.16 679.479 489.04 679.699 488.86 679.599C488.27 679.169 487.66 678.759 487.04 678.369C486.455 678.039 485.888 677.678 485.34 677.289C485.309 677.257 485.288 677.215 485.283 677.17C485.277 677.125 485.286 677.079 485.309 677.039C485.331 677 485.366 676.969 485.408 676.951C485.449 676.933 485.496 676.929 485.54 676.939Z" fill="#39434F"/>
<path d="M523.59 694.44C523.51 694.61 523.77 694.78 523.87 694.59C523.89 694.618 523.915 694.643 523.944 694.662C523.973 694.681 524.006 694.693 524.04 694.7C528.376 695.734 532.771 696.502 537.2 697C540.76 697.32 544.87 697.51 547.99 695.45C552.22 692.64 554.99 685.15 552.71 680.39C550.01 674.74 541.86 677.81 537.77 679.82C531.483 682.89 526.467 688.062 523.59 694.44Z" fill="#96D3FF"/>
<path d="M520.43 697.049C522.803 694.745 525.442 692.731 528.29 691.049C530.347 687.801 533.075 685.029 536.29 682.919C536.45 682.809 536.58 683.059 536.44 683.169C533.892 685.209 531.632 687.584 529.72 690.229C532.892 688.496 536.188 686.999 539.58 685.749C540.794 683.502 542.635 681.657 544.88 680.439C544.88 680.439 544.98 680.439 544.94 680.509C543.086 681.909 541.469 683.597 540.15 685.509C542.15 684.769 544.15 684.069 546.2 683.399C546.38 683.339 546.45 683.619 546.28 683.679C542.68 685.089 539 686.569 535.43 688.279C539.783 688.974 544.218 688.974 548.57 688.279C548.69 688.279 548.74 688.429 548.57 688.459C544.03 689.803 539.209 689.876 534.63 688.669C532.357 689.774 530.15 691.01 528.02 692.369C529.812 692.223 531.616 692.372 533.36 692.809C536.438 693.526 539.59 693.882 542.75 693.869C542.87 693.869 542.9 694.069 542.75 694.089C537.3 695.019 532.15 692.549 526.75 693.189C524.745 694.555 522.865 696.094 521.13 697.789C517.761 701.153 514.988 705.066 512.93 709.359C510.65 713.989 509.42 718.889 507.58 723.669C507.568 723.713 507.539 723.75 507.5 723.773C507.461 723.795 507.414 723.801 507.37 723.789C507.326 723.778 507.289 723.749 507.267 723.709C507.244 723.67 507.238 723.623 507.25 723.579C508.87 714.159 513.56 703.769 520.43 697.049Z" fill="#39434F"/>
<path d="M536.86 684.119C537.225 683.479 537.698 682.907 538.26 682.429C538.715 681.93 539.261 681.522 539.87 681.229C539.92 681.229 539.95 681.229 539.92 681.319C539.47 681.819 538.85 682.199 538.37 682.679C537.89 683.159 537.48 683.739 536.99 684.219C536.977 684.237 536.957 684.248 536.936 684.251C536.914 684.254 536.892 684.248 536.875 684.234C536.858 684.221 536.847 684.202 536.844 684.18C536.841 684.159 536.847 684.137 536.86 684.119Z" fill="#39434F"/>
<path d="M545.85 687.05C546.66 686.85 547.51 686.86 548.33 686.69C549.146 686.495 549.951 686.255 550.74 685.97C550.763 685.964 550.787 685.967 550.808 685.977C550.829 685.987 550.846 686.005 550.856 686.026C550.865 686.048 550.867 686.072 550.86 686.094C550.854 686.117 550.84 686.137 550.82 686.15C549.325 687.072 547.568 687.476 545.82 687.3C545.72 687.28 545.73 687.08 545.85 687.05Z" fill="#39434F"/>
<path d="M497.98 711.97L498.69 720.09L501.12 747.51H522.6L525.63 720.09L526.52 711.97H497.98Z" fill="#606873"/>
<path d="M497.98 711.97L498.69 720.09H525.63L526.52 711.97H497.98Z" fill="#39434F"/>
<path d="M495.86 716.34H528.66V709.75H495.86V716.34Z" fill="#606873"/>
<path d="M91 747.495L159.008 747.253L227.003 747.162L363.007 747L499.01 747.162L567.005 747.253L635 747.495L567.005 747.747L499.01 747.838L363.007 748L227.003 747.838L159.008 747.747L91 747.495Z" fill="#39434F"/>
<path d="M374.715 671.807L377.497 688.506L396.367 790.389H399.406L385.688 688.506L383.658 671.807H374.715Z" fill="#D9DFE6"/>
<path d="M383.658 671.807H374.715L377.497 688.506H385.688L383.658 671.807Z" fill="#B3BECD"/>
<path d="M315.465 790.389H318.505L337.374 688.506L340.156 671.807H331.214L329.183 688.506L315.465 790.389Z" fill="#D9DFE6"/>
<path d="M331.214 671.807L329.183 688.506H337.375L340.156 671.807H331.214Z" fill="#B3BECD"/>
<path d="M258.879 790.389H261.918L280.788 688.506L283.569 671.807H274.627L272.597 688.506L258.879 790.389Z" fill="#D9DFE6"/>
<path d="M272.597 688.506H280.788L283.569 671.807H274.627L272.597 688.506Z" fill="#B3BECD"/>
<path d="M263.702 679.645H401.941V665.082H350.189L332.798 589.227H268.971L263.702 679.645Z" fill="#D9DFE6"/>
<path d="M263.702 679.645H271.236L276.153 589.227H268.971L263.702 679.645Z" fill="#B3BECD"/>
<path d="M324.783 784.768C327.13 787.009 398.279 803.614 400.884 803.286C403.49 802.957 402.75 795.529 400.497 792.818C397.438 790.058 394.217 787.484 390.851 785.108C383.235 779.381 374.363 773.373 374.363 773.373L378.729 763.915L333.643 752.931C330.228 761.439 327.423 768.761 327.012 770.803C327.012 770.756 324.501 784.521 324.783 784.768Z" fill="#ECEFF2"/>
<path d="M401.143 803.485C398.455 803.767 326.696 787.69 324.36 785.343C323.457 784.463 325.194 773.889 327.658 761.169C327.658 761.039 327.658 760.899 327.74 760.77L374.14 770.627L373.953 771.413C373.953 771.413 398.655 789.837 400.943 792.689C403.232 795.54 403.783 803.215 401.143 803.485Z" fill="#96D3FF"/>
<path d="M400.896 800.528C388.868 797.524 340.074 786.528 327.951 784.463C327.857 784.463 327.846 784.463 327.951 784.533C339.804 787.784 388.692 798.381 400.873 800.728C401.143 800.775 401.143 800.587 400.896 800.528Z" fill="#39434F"/>
<path d="M379.21 771.918C374.645 769.958 368.649 769.383 364.271 771.918C364.095 772.023 364.271 772.258 364.412 772.246C369.288 771.802 374.198 771.881 379.057 772.481C379.119 772.473 379.177 772.446 379.224 772.405C379.271 772.364 379.304 772.31 379.32 772.25C379.337 772.19 379.335 772.126 379.315 772.067C379.296 772.008 379.259 771.956 379.21 771.918Z" fill="#39434F"/>
<path d="M382.179 774.758C377.626 772.798 371.618 772.223 367.24 774.758C367.064 774.863 367.24 775.098 367.381 775.086C372.257 774.644 377.166 774.719 382.027 775.309C382.089 775.304 382.148 775.28 382.196 775.24C382.244 775.2 382.278 775.147 382.295 775.087C382.311 775.027 382.309 774.963 382.288 774.904C382.268 774.845 382.23 774.794 382.179 774.758Z" fill="#39434F"/>
<path d="M385.148 777.586C380.595 775.638 374.586 775.063 370.209 777.586C370.033 777.691 370.209 777.926 370.35 777.914C375.226 777.466 380.135 777.541 384.995 778.137C385.054 778.127 385.109 778.1 385.153 778.06C385.198 778.02 385.23 777.968 385.246 777.91C385.262 777.852 385.261 777.791 385.244 777.734C385.226 777.676 385.193 777.625 385.148 777.586Z" fill="#39434F"/>
<path d="M387.729 762.941C386.439 759.948 382.695 760.324 380.336 761.544C376.322 763.714 372.95 766.903 370.561 770.791C370.549 770.807 370.541 770.826 370.537 770.846C370.534 770.866 370.536 770.886 370.544 770.905C370.551 770.924 370.562 770.941 370.578 770.953C370.593 770.966 370.612 770.975 370.632 770.979C370.605 771.071 370.601 771.168 370.62 771.262C370.639 771.356 370.68 771.443 370.739 771.518C370.799 771.593 370.876 771.652 370.963 771.691C371.051 771.73 371.146 771.747 371.242 771.742C375.502 771.179 380.125 771.085 384.08 769.23C386.38 768.139 388.95 765.769 387.729 762.941ZM377.52 769.559C375.431 769.888 373.342 770.122 371.265 770.533C373.13 768.674 375.089 766.912 377.133 765.252C378.128 764.468 379.175 763.75 380.266 763.105C381.968 762.131 388.187 760.652 386.134 765.675C385.042 768.444 380.02 769.16 377.52 769.559Z" fill="#39434F"/>
<path d="M358.732 766.837C362.253 769.384 366.818 770.358 370.89 771.648C370.983 771.671 371.08 771.671 371.173 771.649C371.266 771.627 371.352 771.583 371.426 771.521C371.499 771.46 371.556 771.382 371.594 771.294C371.631 771.206 371.647 771.11 371.641 771.015C371.711 771.015 371.782 770.933 371.747 770.839C370.106 766.58 367.374 762.829 363.825 759.96C361.725 758.329 358.11 757.285 356.291 759.96C354.473 762.636 356.667 765.347 358.732 766.837ZM357.348 762.965C356.291 757.66 362.136 760.242 363.638 761.509C364.594 762.347 365.492 763.248 366.325 764.208C368.018 766.207 369.609 768.291 371.089 770.452C369.13 769.665 367.111 769.067 365.128 768.363C362.746 767.518 357.934 765.898 357.348 762.965Z" fill="#39434F"/>
<path opacity="0.2" d="M380.161 799.366C391.438 801.83 400.181 803.59 401.084 803.497C403.783 803.227 403.185 795.529 400.897 792.689C397.926 789.883 394.791 787.258 391.508 784.826L380.161 799.366Z" fill="#39434F"/>
<path d="M377.45 771.777L328.057 760.136C328.057 760.136 369.271 665.657 365.609 660.857C363.79 658.452 317.801 657.748 303.179 645.355C284.18 629.255 296.924 604.658 296.924 604.658L348.335 603.145C348.335 603.145 347.713 613.87 349.72 615.478C351.034 616.558 412.232 621.709 418.957 642.328C427.195 667.617 377.45 771.777 377.45 771.777Z" fill="#39434F"/>
<path d="M377.426 764.137C376.135 763.527 363.344 759.772 360.469 759.044C354.695 757.566 348.898 756.111 343.089 754.785C340.05 754.092 333.549 752.59 333.15 752.661C332.962 752.661 332.927 753.013 333.15 753.071C338.783 754.925 344.498 756.498 350.213 758.094C355.928 759.69 375.607 764.419 377.332 764.536C377.461 764.548 377.673 764.22 377.426 764.137Z" fill="#39434F"/>
<path d="M374.434 656.597C373.267 655.878 371.932 655.473 370.562 655.424L348.265 651.704C341.33 650.53 334.347 649.51 327.447 648.183C321.732 647.08 315.911 645.59 311.018 642.492C306.175 639.446 302.589 634.76 300.914 629.29C299.351 623.793 298.909 618.039 299.612 612.368C299.741 610.983 299.999 609.61 300.257 608.249C300.257 608.144 300.104 608.108 300.093 608.249C298.203 618.811 298.039 630.968 305.96 639.359C309.809 643.442 315.09 645.836 320.476 647.397C326.629 648.964 332.867 650.175 339.159 651.023L361.455 654.732C364.976 655.33 368.649 655.788 372.193 656.527C372.904 656.62 373.572 656.918 374.117 657.384C374.378 657.753 374.544 658.18 374.599 658.629C374.654 659.077 374.598 659.532 374.434 659.954C374.082 661.702 373.601 663.474 373.108 665.141C369.059 678.953 339.182 749.398 338.384 750.912C338.373 750.944 338.374 750.978 338.387 751.009C338.399 751.041 338.422 751.066 338.452 751.082C338.482 751.097 338.516 751.102 338.549 751.094C338.582 751.087 338.61 751.068 338.63 751.041C345.437 738.93 367.792 683.482 372.287 670.421C373.47 667.099 374.442 663.704 375.197 660.259C375.326 658.921 375.525 657.525 374.434 656.597Z" fill="#39434F"/>
<path d="M474.346 806.395C471.858 807.228 400.626 806.231 397.916 804.494C394.947 801.666 393.679 734.46 393.679 734.46L439.505 734.084L442.368 782.338C442.368 782.338 452.261 786.457 460.874 790.553C464.644 792.214 468.312 794.099 471.858 796.198C474.639 798.415 476.834 805.574 474.346 806.395Z" fill="#FFC4C0"/>
<path d="M394.923 774.218C395.604 789.321 396.578 803.25 397.904 804.494C400.615 806.231 471.835 807.24 474.346 806.395C476.857 805.55 474.639 798.427 471.882 796.221C468.333 794.121 464.661 792.236 460.886 790.576C452.272 786.481 442.38 782.362 442.38 782.362L441.899 774.241L394.923 774.218Z" fill="#ECEFF2"/>
<path d="M475.813 806.443C473.231 807.299 399.699 806.947 396.918 805.152C395.839 804.495 395.264 793.792 394.947 780.837V780.426L442.38 780.133V780.931C442.38 780.931 470.462 793.64 473.325 795.928C476.188 798.216 478.383 805.61 475.813 806.443Z" fill="#96D3FF"/>
<path d="M474.991 803.591C462.599 803.227 412.572 802.934 400.298 803.509C400.192 803.509 400.192 803.591 400.298 803.591C412.572 804.225 462.599 804.107 474.991 803.802C475.249 803.814 475.249 803.603 474.991 803.591Z" fill="#39434F"/>
<path d="M447.66 780.343C442.79 779.416 436.817 780.132 433.074 783.582C432.933 783.723 433.074 783.923 433.285 783.876C437.955 782.396 442.771 781.421 447.649 780.965C447.721 780.953 447.787 780.915 447.835 780.859C447.883 780.804 447.909 780.733 447.911 780.659C447.912 780.586 447.888 780.514 447.842 780.456C447.797 780.399 447.732 780.359 447.66 780.343Z" fill="#39434F"/>
<path d="M451.181 782.421C446.299 781.493 440.338 782.209 436.594 785.659C436.442 785.8 436.594 786 436.794 785.953C441.464 784.473 446.28 783.498 451.157 783.043C451.23 783.031 451.297 782.995 451.346 782.94C451.395 782.885 451.424 782.815 451.426 782.741C451.429 782.668 451.406 782.595 451.361 782.537C451.317 782.478 451.253 782.437 451.181 782.421Z" fill="#39434F"/>
<path d="M454.69 784.556C449.808 783.629 443.847 784.345 440.103 787.795C439.951 787.936 440.103 788.135 440.303 788.089C444.973 786.609 449.788 785.634 454.666 785.178C454.739 785.167 454.806 785.131 454.855 785.076C454.904 785.021 454.932 784.951 454.935 784.877C454.938 784.803 454.915 784.731 454.87 784.672C454.825 784.614 454.762 784.573 454.69 784.556Z" fill="#39434F"/>
<path d="M454.056 769.7C452.155 767.048 448.576 768.222 446.534 769.923C443.079 772.899 440.469 776.732 438.965 781.036C438.957 781.056 438.954 781.077 438.957 781.097C438.959 781.118 438.966 781.138 438.978 781.155C438.989 781.172 439.005 781.186 439.023 781.196C439.041 781.206 439.061 781.212 439.082 781.212C439.077 781.308 439.094 781.403 439.133 781.491C439.172 781.578 439.231 781.655 439.306 781.715C439.38 781.774 439.468 781.815 439.562 781.834C439.656 781.853 439.753 781.849 439.845 781.823C443.882 780.356 448.376 779.288 451.838 776.624C453.857 775.063 455.863 772.2 454.056 769.7ZM445.513 778.349C443.541 779.123 441.546 779.792 439.645 780.637C441.053 778.426 442.577 776.292 444.21 774.242C445.01 773.256 445.877 772.327 446.804 771.461C448.259 770.146 454.021 767.365 453.141 772.704C452.613 775.65 447.848 777.434 445.513 778.349Z" fill="#39434F"/>
<path d="M426.584 779.71C430.586 781.435 435.209 781.376 439.493 781.811C439.939 781.811 440.161 781.388 440.091 781.024C440.106 781.012 440.118 780.997 440.126 780.98C440.134 780.962 440.138 780.944 440.138 780.925C440.138 780.905 440.134 780.887 440.126 780.869C440.118 780.852 440.106 780.837 440.091 780.825C437.575 777.02 434.103 773.945 430.022 771.906C427.617 770.733 423.873 770.51 422.676 773.537C421.479 776.565 424.237 778.701 426.584 779.71ZM424.39 776.189C422.219 771.225 428.485 772.505 430.257 773.42C431.369 774.032 432.44 774.719 433.461 775.474C435.544 777.065 437.546 778.761 439.457 780.555C437.369 780.215 435.28 780.062 433.179 779.792C430.644 779.51 425.587 778.959 424.39 776.225V776.189Z" fill="#39434F"/>
<path d="M444.914 780.684H393.28C393.28 780.684 393.926 687.425 389.877 682.262C384.479 675.362 308.905 675.514 292.699 653.03C278.148 632.822 290.434 604.236 290.434 604.236L347.666 602.534C346.373 608.665 344.6 614.684 342.362 620.536C342.362 620.536 411.294 633.245 430.609 654.356C443.588 668.626 444.914 780.684 444.914 780.684Z" fill="#39434F"/>
<path d="M352.372 616.628C350.713 616.997 349.091 617.515 347.525 618.177C345.882 618.811 344.263 619.515 342.679 620.29C339.573 621.832 336.553 623.54 333.631 625.406C333.537 625.406 333.631 625.582 333.725 625.535C336.811 623.928 340.015 622.484 343.218 621.111L347.842 619.116C349.443 618.513 351.01 617.823 352.536 617.051C352.578 617.02 352.608 616.977 352.622 616.927C352.637 616.878 352.635 616.825 352.616 616.777C352.597 616.728 352.563 616.688 352.519 616.661C352.475 616.634 352.423 616.623 352.372 616.628Z" fill="#39434F"/>
<path d="M348.945 602.523C348.288 605.128 347.772 607.757 346.962 610.35C346.622 611.524 346.282 612.697 345.789 613.871C345.413 614.833 344.838 615.948 343.712 616.159C342.585 616.37 342.045 615.302 342.151 614.234C342.256 613.166 342.573 611.887 342.808 610.714C343.078 609.364 343.36 608.003 343.606 606.653C343.723 605.973 343.852 605.292 343.97 604.612C343.97 604.436 344.122 603.133 344.216 602.757C344.216 602.757 344.216 602.828 344.287 602.816C344.287 602.816 344.369 602.816 344.369 602.746C344.369 602.675 344.369 602.617 344.298 602.546C344.228 602.476 344.228 602.546 344.181 602.546C343.935 602.687 343.923 603.027 343.841 603.274C343.629 603.931 343.418 604.6 343.219 605.257C342.855 606.501 342.503 607.757 342.186 609.012C341.869 610.268 341.564 611.523 341.259 612.779C340.931 613.708 340.842 614.705 341.001 615.678C341.118 616.14 341.381 616.553 341.751 616.855C342.121 617.157 342.578 617.333 343.054 617.356L342.914 617.602C342.796 617.86 342.714 618.13 342.62 618.4C342.526 618.67 342.432 618.94 342.35 619.21C342.315 619.345 342.292 619.482 342.28 619.621C342.28 619.773 342.28 619.914 342.28 620.067C342.28 620.219 342.573 620.442 342.691 620.219C342.766 620.09 342.848 619.964 342.937 619.844C343.014 619.705 343.077 619.56 343.125 619.409C343.207 619.151 343.289 618.893 343.348 618.623C343.406 618.353 343.5 618.095 343.547 617.825C343.559 617.665 343.559 617.504 343.547 617.344C344.096 617.298 344.62 617.099 345.061 616.769C345.794 616.151 346.335 615.337 346.622 614.422C347.009 613.342 347.314 612.216 347.619 611.101C348.425 608.356 348.983 605.544 349.286 602.699C349.438 602.323 349.016 602.218 348.945 602.523Z" fill="#39434F"/>
<path d="M314.914 608.907C314.679 610.198 314.526 611.512 314.221 612.791C313.916 614.071 313.588 615.303 313.177 616.523C312.806 617.715 312.269 618.849 311.581 619.891C310.865 620.869 310.011 621.739 309.046 622.473C307.2 623.935 305.127 625.085 302.909 625.876C301.796 626.279 300.66 626.612 299.506 626.873C298.907 627.014 298.332 627.12 297.687 627.202C297.181 627.213 296.682 627.325 296.22 627.531C296.176 627.558 296.14 627.596 296.115 627.641C296.09 627.686 296.077 627.737 296.077 627.789C296.077 627.84 296.09 627.891 296.115 627.936C296.14 627.981 296.176 628.019 296.22 628.047C297.102 628.303 298.035 628.331 298.931 628.129C299.907 628.027 300.875 627.858 301.829 627.624C303.758 627.105 305.603 626.315 307.309 625.277C309.062 624.321 310.635 623.066 311.956 621.569C313.177 619.995 314.016 618.159 314.409 616.206C315.014 613.83 315.282 611.381 315.207 608.931C315.148 608.79 314.937 608.766 314.914 608.907Z" fill="#39434F"/>
<path d="M400.662 716C400.153 707.88 399.48 699.779 398.643 691.697C398.432 689.702 398.232 687.695 397.986 685.712C397.844 684.158 397.505 682.628 396.977 681.159C395.803 678.12 393.257 676.582 390.194 675.82C386.58 674.904 382.836 674.353 379.163 673.766C375.49 673.179 371.629 672.592 367.85 672.088C360.211 671.02 352.595 670.034 344.955 668.755C337.365 667.551 329.859 665.866 322.483 663.709C315.723 661.667 308.788 659.144 303.378 654.462C291.725 644.381 291.303 627.471 292.723 613.389C292.922 611.394 293.169 609.411 293.415 607.416C293.415 607.311 293.263 607.275 293.251 607.416C292.335 615.372 291.256 623.387 292.077 631.403C292.587 638.038 294.775 644.434 298.438 649.991C302.381 655.635 308.225 659.285 314.526 661.831C321.478 664.511 328.653 666.572 335.966 667.992C351.069 671.161 366.477 672.499 381.674 675.092C383.552 675.409 385.418 675.749 387.284 676.113C389.019 676.377 390.719 676.834 392.353 677.474C395.803 679.012 396.754 682.368 397.176 685.841C398.174 693.892 398.843 701.989 399.429 710.086C400.603 726.386 401.225 742.78 401.201 759.127C401.201 761.145 401.201 767.94 401.201 769.958C401.201 770.134 401.471 770.111 401.471 769.958C401.905 753.482 401.694 732.347 400.662 716Z" fill="#39434F"/>
<path d="M442.497 772.575C430.762 771.777 397.129 772.106 396.73 772.27C396.554 772.352 396.601 772.669 396.789 772.681C402.656 773.103 440.737 773.303 442.438 772.997C442.626 772.962 442.696 772.587 442.497 772.575Z" fill="#39434F"/>
<path d="M342.667 620.748C353.231 622.013 363.672 624.153 373.882 627.143C384.177 630.035 394.245 633.679 404.006 638.045C409.487 640.498 414.791 643.244 420.036 646.13C420.142 646.189 420.036 646.342 419.942 646.295C410.456 641.392 400.655 637.123 390.605 633.515C380.643 629.888 370.45 626.932 360.094 624.667C354.226 623.4 348.359 622.414 342.491 621.44C342.163 621.311 342.268 620.642 342.667 620.748Z" fill="#39434F"/>
<path d="M393.01 703.116C392.646 697.506 392.06 691.897 391.144 686.335C390.769 684.093 390.675 681.195 388.316 680.08C387.225 679.552 365.327 675.75 362.182 675.808C362.15 675.81 362.119 675.823 362.095 675.843C362.07 675.864 362.052 675.892 362.044 675.923C362.037 675.955 362.039 675.988 362.051 676.018C362.063 676.048 362.084 676.073 362.112 676.09C362.405 676.219 383.235 680.15 385.863 680.784C386.429 680.825 386.98 680.982 387.482 681.244C387.985 681.507 388.428 681.869 388.785 682.309C389.287 683.45 389.585 684.669 389.666 685.912C391.421 696.816 392.394 707.833 392.576 718.876C392.662 721.943 392.713 724.998 392.728 728.041C392.728 731.186 392.623 734.366 392.858 737.488C392.858 737.556 392.885 737.622 392.933 737.67C392.982 737.719 393.047 737.746 393.116 737.746C393.184 737.746 393.25 737.719 393.298 737.67C393.347 737.622 393.374 737.556 393.374 737.488C393.609 734.648 393.526 731.749 393.538 728.898C393.55 726.046 393.538 723.171 393.538 720.296C393.526 714.557 393.397 708.831 393.01 703.116Z" fill="#39434F"/>
<path d="M345.003 550.959C359.8 570.639 394.947 598.31 403.197 591.868C413.336 583.958 411.411 554.855 411.669 551.112C411.892 547.11 378.647 548.119 379.985 552.203C380.771 554.621 381.158 557.214 380.513 556.968C378.553 556.193 374.199 552.274 355.318 541.712C344.815 535.809 335.204 537.933 345.003 550.959Z" fill="#FFC4C0"/>
<path d="M375.326 552.086L367.545 559.725L357.782 569.301C357.782 569.301 346.669 558.529 341.857 549.645C338.337 543.109 338.22 537.593 341.717 536.396C343.459 535.959 345.298 536.133 346.927 536.889C359.519 541.595 375.326 552.086 375.326 552.086Z" fill="#96D3FF"/>
<path d="M370.784 550.091C367.674 552.931 356.409 563.457 355.529 565.346C355.529 565.346 355.611 565.487 355.658 565.475C357.488 564.584 368.12 553.424 370.972 550.337C371.019 550.22 370.843 550.044 370.784 550.091Z" fill="#39434F"/>
<path d="M367.545 559.725L357.782 569.301C357.782 569.301 346.669 558.528 341.857 549.644C338.337 543.108 338.22 537.592 341.717 536.396L367.545 559.725Z" fill="#39434F"/>
<path d="M411.704 533.309C413.582 539.682 412.326 554.221 410.683 557.613C409.041 561.004 384.233 559.702 382.026 556.51C379.82 553.318 375.15 531.373 377.72 525.095C380.29 518.817 409.733 526.703 411.704 533.309Z" fill="#FFC4C0"/>
<path d="M383.247 510.813C382.179 507.926 376.968 499.653 374.457 500.615C371.946 501.578 374.187 508.126 375.173 510.755C377.227 516.164 377.156 524.156 377.062 528.029C376.968 531.901 386.016 528.029 386.016 528.029C386.016 528.029 386.04 518.312 383.247 510.813Z" fill="#FFC4C0"/>
<path d="M379.597 533.497C379.597 533.497 379.245 540.315 382.871 541.712C386.497 543.108 387.765 537.651 387.87 537.276C387.87 537.628 387.694 543.906 391.496 544.951C395.299 545.995 395.909 540.374 395.932 540.01C396.026 540.35 397.329 544.904 400.38 545.044C405.649 545.279 402.645 533.556 404.968 529.977C404.968 529.977 411.481 533.227 411.681 533.286C411.681 533.286 409.052 522.067 404.065 519.204C403.344 518.774 402.499 518.604 401.668 518.721C400.838 518.839 400.073 519.237 399.5 519.849C399.5 519.849 399.054 516.141 396.085 515.226C394.571 514.756 392.47 516.775 392.47 516.775C392.325 515.941 391.952 515.163 391.393 514.528C390.834 513.892 390.11 513.423 389.302 513.172C387.166 512.644 385.101 514.709 384.608 515.625C380.512 522.677 379.597 533.497 379.597 533.497Z" fill="#FFC4C0"/>
<path d="M392.471 516.693C392.471 516.634 392.388 516.575 392.342 516.693C388.343 522.837 386.678 530.21 387.648 537.475C387.648 537.734 387.988 537.91 387.953 537.616C387.518 532.617 389.924 522.255 392.471 516.693Z" fill="#39434F"/>
<path d="M396.19 540.515C395.322 533.404 396.812 526.726 399.335 520.096C399.335 520.002 399.242 519.967 399.195 520.026C397.082 522.948 395.909 527.337 395.299 530.845C394.658 534.081 394.88 537.428 395.944 540.55C395.991 540.668 396.214 540.668 396.19 540.515Z" fill="#39434F"/>
<path d="M379.597 533.497C379.651 534.809 379.823 536.113 380.114 537.393C380.348 538.651 380.911 539.825 381.745 540.796C382.15 541.218 382.698 541.473 383.282 541.512C383.873 541.55 384.464 541.432 384.995 541.172C385.505 540.873 385.945 540.469 386.286 539.988C386.628 539.506 386.864 538.958 386.979 538.379L387.671 535.562L388 538.437C388.132 539.718 388.477 540.967 389.02 542.134C389.24 542.687 389.572 543.187 389.997 543.603C390.421 544.02 390.928 544.343 391.485 544.551C392.006 544.736 392.574 544.736 393.095 544.552C393.616 544.369 394.058 544.012 394.348 543.542C394.979 542.474 395.327 541.262 395.357 540.022L395.569 536.607L396.484 539.881C396.741 540.796 397.111 541.675 397.587 542.498C398.01 543.291 398.66 543.941 399.453 544.364C399.816 544.543 400.222 544.616 400.625 544.575C401.028 544.533 401.411 544.379 401.729 544.129C402.361 543.483 402.793 542.668 402.973 541.782C403.396 539.851 403.663 537.888 403.771 535.914C403.865 534.917 403.959 533.919 404.1 532.922C404.179 531.912 404.475 530.932 404.968 530.047C404.581 530.969 404.378 531.957 404.37 532.957C404.311 533.943 404.299 534.94 404.288 535.95C404.305 537.975 404.136 539.998 403.783 541.993C403.606 543.079 403.116 544.09 402.375 544.903C401.922 545.299 401.363 545.554 400.767 545.638C400.171 545.721 399.563 545.629 399.019 545.373C398.029 544.868 397.212 544.079 396.672 543.108C396.124 542.206 395.698 541.235 395.404 540.221L396.578 540.092C396.554 541.559 396.15 542.994 395.404 544.258C394.971 544.948 394.311 545.467 393.538 545.725C392.774 545.962 391.956 545.962 391.191 545.725C390.483 545.467 389.837 545.062 389.297 544.536C388.757 544.01 388.335 543.375 388.058 542.674C387.492 541.377 387.136 539.999 387.002 538.59L388.023 538.66C387.855 539.374 387.532 540.042 387.078 540.618C386.624 541.194 386.049 541.663 385.394 541.993C384.716 542.277 383.978 542.386 383.247 542.31C382.504 542.217 381.821 541.859 381.322 541.301C380.478 540.21 379.953 538.906 379.808 537.534C379.587 536.2 379.516 534.846 379.597 533.497Z" fill="#39434F"/>
<path d="M380.548 552.919C380.548 552.919 362.57 531.185 374.504 528.275C378.025 527.418 393.632 528.158 393.55 531.291C393.433 535.328 386.873 536.243 382.66 536.149C382.66 536.149 389.818 542.686 386.755 549.058C386.173 550.208 385.287 551.176 384.192 551.857C383.097 552.538 381.837 552.905 380.548 552.919Z" fill="#FFC4C0"/>
<path d="M373.53 528.616C374.88 528.118 376.295 527.821 377.731 527.736C379.167 527.61 380.61 527.579 382.05 527.642C384.938 527.736 387.812 528.081 390.64 528.674C391.391 528.826 392.115 529.091 392.787 529.461C393.18 529.668 393.52 529.961 393.785 530.317C393.927 530.514 394.038 530.732 394.113 530.963C394.174 531.192 394.202 531.429 394.195 531.667C394.16 532.54 393.815 533.372 393.221 534.014C392.667 534.581 392.02 535.049 391.309 535.399C389.954 536.031 388.502 536.428 387.014 536.572C385.568 536.732 384.113 536.787 382.66 536.736L382.988 535.856C383.78 536.631 384.495 537.48 385.124 538.391C385.753 539.29 386.291 540.249 386.732 541.254C387.156 542.266 387.433 543.333 387.553 544.423C387.671 545.506 387.579 546.601 387.283 547.65C387.437 546.597 387.413 545.526 387.213 544.481C387.001 543.451 386.646 542.456 386.157 541.524C385.684 540.586 385.118 539.697 384.467 538.872C383.823 538.056 383.108 537.298 382.331 536.607L381.357 535.774H382.672C384.073 535.771 385.473 535.673 386.861 535.481C388.218 535.323 389.541 534.95 390.781 534.378C391.954 533.791 392.987 532.829 392.998 531.725C393.01 530.622 391.649 530.176 390.358 529.836C388.993 529.493 387.61 529.223 386.216 529.026C384.819 528.803 383.411 528.592 382.003 528.463C379.188 528.074 376.329 528.125 373.53 528.616Z" fill="#39434F"/>
<path d="M380.512 556.968L381.486 559.749L382.425 562.542L384.326 568.093C384.96 569.947 385.605 571.789 386.286 573.62C386.626 574.535 386.967 575.45 387.342 576.354C387.718 577.258 388.105 578.161 388.516 579.077C387.438 577.425 386.493 575.69 385.688 573.89C384.866 572.094 384.174 570.24 383.517 568.386C382.859 566.532 382.343 564.643 381.815 562.741C381.287 560.84 380.818 558.916 380.512 556.968Z" fill="#39434F"/>
<path d="M355.306 618.19C353.546 619.598 283.851 620.384 283.558 619.891C282.76 618.553 301.665 554.973 331.378 535.211C336.612 531.691 344.592 534.143 348.042 536.842C349.779 538.204 354.813 548.495 355.505 556.909C356.198 565.323 356.421 617.286 355.306 618.19Z" fill="#96D3FF"/>
<path d="M356.08 592.067V592.583C355.752 592.384 355.411 592.161 355.095 591.926C352.569 589.952 350.388 587.573 348.64 584.885C346.81 582.291 345.12 579.581 343.5 576.905C341.244 573.085 338.644 569.479 335.732 566.132L335.368 565.745C334.212 564.534 332.956 563.423 331.613 562.424C329.091 560.576 326.177 559.336 323.097 558.8C320.017 558.265 316.855 558.449 313.858 559.338C311.243 560.197 308.842 561.605 306.817 563.468L307.673 562.037C309.463 560.608 311.494 559.511 313.67 558.798C316.751 557.872 320.004 557.671 323.175 558.211C326.349 558.793 329.34 560.116 331.906 562.072C333.378 563.172 334.745 564.405 335.99 565.757C336.119 565.898 336.248 566.027 336.365 566.168C339.182 569.46 341.703 572.994 343.899 576.729C345.566 579.416 347.197 582.115 349.004 584.697C350.723 587.323 352.86 589.65 355.329 591.586C355.599 591.75 355.834 591.914 356.08 592.067ZM349.509 595.071C346.193 594.959 342.936 594.16 339.945 592.724C333.901 589.849 329.043 585.096 324.196 580.508C322.436 578.841 320.676 577.175 318.833 575.602L318.54 575.344C317.93 574.828 317.366 574.323 316.662 573.831C314.044 571.669 310.984 570.107 307.697 569.254C306.416 568.961 305.102 568.842 303.789 568.902L303.519 569.371C304.889 569.281 306.265 569.392 307.603 569.7C310.818 570.551 313.81 572.093 316.369 574.218C316.979 574.687 317.542 575.168 318.153 575.661C318.26 575.741 318.362 575.827 318.458 575.919C320.312 577.492 322.084 579.193 323.856 580.872C328.679 585.472 333.561 590.26 339.698 593.217C342.757 594.709 346.096 595.541 349.497 595.658C351.712 595.715 353.926 595.482 356.08 594.965C356.08 594.766 356.08 594.578 356.08 594.379C353.929 594.896 351.72 595.128 349.509 595.071ZM356.033 578.642C355.318 577.468 354.578 576.295 353.792 575.121C352.028 572.452 349.793 570.126 347.197 568.256C344.512 566.458 341.333 565.539 338.102 565.628C337.41 565.628 336.729 565.628 336.037 565.745L335.38 565.827C334.697 565.917 334.019 566.043 333.35 566.203C331.806 566.61 330.308 567.172 328.879 567.881C325.153 569.948 321.683 572.445 318.54 575.321C318.411 575.426 318.282 575.544 318.153 575.638C316.698 576.893 315.231 578.126 313.729 579.287C311.267 581.256 308.576 582.919 305.714 584.239C302.831 585.513 299.742 586.253 296.595 586.422C296.103 586.422 295.621 586.422 295.14 586.422C295.14 586.528 295.046 586.633 295.011 586.739L296.619 586.68C299.8 586.516 302.925 585.776 305.843 584.498C308.733 583.171 311.455 581.504 313.952 579.534C315.489 578.36 316.979 577.105 318.458 575.849L318.833 575.532C321.941 572.693 325.376 570.234 329.066 568.209C330.469 567.516 331.94 566.969 333.455 566.578C334.228 566.392 335.012 566.254 335.802 566.168H336.471C337.034 566.109 337.645 566.085 338.161 566.074C341.302 566.004 344.388 566.905 346.997 568.655C349.542 570.497 351.729 572.788 353.452 575.415C354.39 576.764 355.259 578.149 356.104 579.569C356.033 579.24 356.033 578.912 356.022 578.595L356.033 578.642Z" fill="white"/>
<path d="M347.56 548.918C343.477 548.742 338.56 541.02 337.304 535.551C337.222 535.176 342.256 522.561 342.995 519.956C343.148 519.428 358.251 528.569 358.251 528.569C356.395 531.557 354.913 534.761 353.839 538.11C353.698 538.485 351.515 549.094 347.56 548.918Z" fill="#FFC4C0"/>
<path d="M343.512 520.096C343.148 524.52 343.054 536.278 351.879 539.013C352.412 539.174 352.958 539.292 353.51 539.365C353.686 538.649 353.792 538.191 353.804 538.097C354.88 534.753 356.361 531.553 358.216 528.568C358.14 528.508 358.058 528.456 357.969 528.416C357.864 528.334 357.723 528.263 357.559 528.158L357.383 528.052C357.289 527.982 357.171 527.923 357.054 527.853L356.632 527.594L355.928 527.184L355.669 527.019L355.13 526.691L352.994 525.423L352.184 524.942C351.832 524.743 351.48 524.543 351.14 524.32L350.095 523.722L349.966 523.651L348.194 522.619L347.607 522.278L346.434 521.645L345.671 521.222L344.169 520.424L343.829 520.26L343.512 520.096Z" fill="#39434F"/>
<path d="M348.253 500.346C344.404 505.322 341.212 522.643 343.852 527.841C347.666 535.293 356.984 539.4 364.095 534.12C370.995 529.003 374.751 506.284 371.524 501.261C366.771 494.009 353.944 493 348.253 500.346Z" fill="#FFC4C0"/>
<path d="M359.824 516.986C359.824 516.986 359.718 516.986 359.718 517.068C359.46 518.242 358.967 519.58 357.805 519.709V519.779C359.143 519.92 359.777 518.16 359.824 516.986Z" fill="#39434F"/>
<path d="M359.085 515.496C357.219 514.886 356.127 518.653 357.911 519.228C359.695 519.803 360.645 516.013 359.085 515.496Z" fill="#39434F"/>
<path d="M366.512 518.395C366.512 518.395 366.595 518.477 366.512 518.524C366.137 519.697 365.89 521.058 366.829 521.762C366.829 521.762 366.829 521.845 366.829 521.762C365.621 521.258 365.937 519.427 366.512 518.395Z" fill="#39434F"/>
<path d="M367.921 517.479C369.834 517.901 368.86 521.703 367.088 521.316C365.316 520.929 366.313 517.138 367.921 517.479Z" fill="#39434F"/>
<path d="M356.55 526.585C356.738 526.949 356.89 527.407 357.289 527.583C357.72 527.725 358.177 527.769 358.627 527.712C358.627 527.712 358.697 527.77 358.627 527.794C358.384 527.964 358.101 528.065 357.805 528.088C357.51 528.111 357.214 528.054 356.949 527.923C356.735 527.782 356.567 527.581 356.467 527.345C356.367 527.109 356.338 526.849 356.385 526.597C356.385 526.586 356.386 526.575 356.389 526.565C356.393 526.555 356.398 526.545 356.405 526.537C356.412 526.529 356.421 526.522 356.431 526.517C356.44 526.513 356.451 526.51 356.462 526.509C356.473 526.508 356.483 526.51 356.494 526.513C356.504 526.516 356.513 526.522 356.522 526.529C356.53 526.536 356.536 526.545 356.541 526.554C356.546 526.564 356.549 526.574 356.55 526.585Z" fill="#39434F"/>
<path d="M363.238 523.347C363.238 523.347 362.992 525.166 362.769 525.987C361.15 525.557 359.48 525.347 357.805 525.365C357.406 525.365 357.488 525.083 357.969 524.954C359.376 524.562 360.869 524.603 362.253 525.072C362.382 524.86 362.581 522.267 362.71 522.302C363.337 522.534 363.929 522.85 364.471 523.241C365.081 519.474 365.093 515.625 365.761 511.881C365.769 511.858 365.784 511.838 365.804 511.823C365.824 511.809 365.848 511.801 365.873 511.801C365.898 511.801 365.922 511.809 365.942 511.823C365.962 511.838 365.977 511.858 365.984 511.881C366.108 515.996 365.818 520.112 365.116 524.168C365.057 524.673 363.59 523.581 363.238 523.347Z" fill="#39434F"/>
<path d="M357.723 512.363C358.263 512.281 358.768 512.281 359.307 512.245C359.862 512.133 360.438 512.203 360.95 512.445C361.095 512.553 361.2 512.706 361.248 512.88C361.297 513.054 361.287 513.239 361.22 513.407C361.036 513.717 360.772 513.973 360.457 514.148C360.142 514.323 359.785 514.412 359.425 514.405C358.691 514.503 357.948 514.328 357.336 513.912C357.2 513.809 357.098 513.669 357.042 513.508C356.985 513.348 356.977 513.175 357.018 513.01C357.06 512.845 357.148 512.695 357.274 512.58C357.399 512.465 357.555 512.39 357.723 512.363Z" fill="#39434F"/>
<path d="M371.219 513.372C370.818 513.02 370.399 512.691 369.963 512.386C369.575 511.979 369.063 511.71 368.508 511.623C368.328 511.627 368.154 511.692 368.016 511.807C367.877 511.922 367.782 512.081 367.745 512.257C367.718 512.618 367.789 512.979 367.95 513.303C368.111 513.627 368.357 513.902 368.66 514.099C369.21 514.596 369.926 514.868 370.667 514.862C370.835 514.852 370.997 514.793 371.132 514.692C371.267 514.592 371.37 514.454 371.429 514.297C371.487 514.139 371.498 513.967 371.461 513.803C371.424 513.639 371.339 513.489 371.219 513.372Z" fill="#39434F"/>
<path d="M352.278 515.132C353.722 515.684 353.991 512.668 354.062 511.612C354.237 510.526 354.508 509.458 354.872 508.42C354.447 509.436 353.928 510.41 353.323 511.33C352.654 512.14 350.835 514.557 352.278 515.132Z" fill="white"/>
<path d="M342.55 517.009C342.55 517.009 339.792 504.782 342.327 499.09C343.5 496.52 347.69 495.945 347.69 495.945C347.774 494.768 348.186 493.638 348.878 492.682C349.571 491.726 350.517 490.982 351.609 490.535C355.74 488.622 363.133 491.838 363.133 491.838C363.133 491.838 370.444 486.358 376.476 491.509C382.507 496.661 375.302 503.068 375.302 503.068C375.302 503.068 376.652 507.551 369.435 508.302C362.394 509.041 350.87 502.153 350.87 502.153C350.017 506.633 348.498 510.961 346.363 514.991C345.975 515.645 345.413 516.18 344.74 516.536C344.067 516.892 343.309 517.056 342.55 517.009Z" fill="#39434F"/>
<path d="M364.306 492.331C362.959 491.178 361.389 490.315 359.694 489.796C358.187 489.263 356.599 488.997 355 489.01C353.594 488.939 352.195 489.253 350.954 489.919C349.713 490.585 348.678 491.577 347.959 492.788C347.63 493.431 347.433 494.132 347.379 494.851C347.324 495.571 347.414 496.294 347.642 496.978C347.642 497.037 347.748 496.978 347.725 496.978C346.786 494.431 348.675 491.615 350.893 490.5C353.508 489.416 356.429 489.324 359.108 490.242C360.847 490.789 362.514 491.546 364.072 492.495C364.082 492.511 364.096 492.524 364.112 492.534C364.128 492.544 364.145 492.551 364.164 492.554C364.183 492.557 364.202 492.557 364.22 492.553C364.238 492.549 364.256 492.541 364.271 492.53C364.286 492.52 364.3 492.506 364.31 492.49C364.32 492.474 364.327 492.456 364.33 492.438C364.333 492.419 364.333 492.4 364.329 492.382C364.325 492.364 364.317 492.346 364.306 492.331Z" fill="#39434F"/>
<path d="M380.348 496.556C380.332 495.521 380.063 494.506 379.564 493.6C379.065 492.694 378.351 491.923 377.485 491.357C375.537 489.973 373.183 489.279 370.796 489.386C368.394 489.5 366.068 490.258 364.06 491.58C364.06 491.58 364.06 491.686 364.06 491.662C365.858 490.509 367.935 489.862 370.07 489.789C372.206 489.717 374.321 490.222 376.194 491.252C377.081 491.65 377.856 492.262 378.448 493.033C379.04 493.805 379.431 494.711 379.585 495.671C379.74 496.631 379.654 497.615 379.334 498.533C379.015 499.452 378.472 500.276 377.755 500.933C376.075 502.472 373.998 503.509 371.758 503.925C371.758 503.925 371.758 504.019 371.758 504.008C373.844 503.729 375.823 502.921 377.508 501.661C378.319 501.063 378.993 500.297 379.483 499.417C379.972 498.536 380.268 497.56 380.348 496.556Z" fill="#39434F"/>
<path d="M370.866 509.147C367.707 509.336 364.543 508.852 361.584 507.727C358.493 506.6 355.534 505.141 352.759 503.374C351.14 502.364 349.556 501.285 347.995 500.182C347.995 500.182 347.901 500.182 347.995 500.264C350.599 502.581 353.438 504.618 356.468 506.343C359.298 507.912 362.407 508.917 365.621 509.3C367.385 509.495 369.168 509.468 370.925 509.218C370.925 509.218 370.913 509.135 370.866 509.147Z" fill="#39434F"/>
<path d="M346.716 514.909C346.716 514.909 344.897 508.291 342.022 508.76C339.146 509.23 339.193 517.89 341.646 519.944C341.937 520.225 342.281 520.445 342.658 520.592C343.035 520.739 343.437 520.809 343.842 520.798C344.246 520.787 344.644 520.695 345.013 520.528C345.381 520.362 345.713 520.123 345.988 519.826L346.716 514.909Z" fill="#FFC4C0"/>
<path d="M342.092 511.236V511.307C343.782 512.821 344.169 515.015 344.228 517.174C344.183 516.934 344.086 516.707 343.945 516.507C343.803 516.308 343.62 516.142 343.408 516.021C343.196 515.899 342.96 515.825 342.717 515.803C342.474 515.781 342.228 515.813 341.998 515.895C341.998 515.895 341.998 516.012 341.998 516.012C342.386 516.028 342.76 516.162 343.068 516.397C343.377 516.633 343.606 516.957 343.723 517.327C343.914 517.946 344.04 518.583 344.099 519.228C344.099 519.439 344.474 519.463 344.486 519.228C345.413 516.681 344.709 512.457 342.092 511.236Z" fill="#39434F"/>
<path d="M325.475 547.603C322.037 566.801 324.102 607.052 332.845 613.8C342.972 621.604 387.307 623.188 397.165 620.301C401.096 619.128 391.743 593.158 387.378 593.193C369.036 593.322 353.593 591.21 352.02 589.039C349.603 585.718 343.277 562.307 338.959 547.638C333.549 529.214 327.013 538.989 325.475 547.603Z" fill="#FFC4C0"/>
<path d="M436.629 566.226L408.465 584.627C408.29 584.717 408.141 584.851 408.031 585.015C407.921 585.179 407.854 585.367 407.837 585.564C407.819 585.761 407.851 585.958 407.93 586.139C408.01 586.32 408.133 586.478 408.289 586.598L421.386 596.432C421.808 596.7 422.299 596.843 422.8 596.843C423.3 596.843 423.791 596.7 424.214 596.432L452.378 578.031C452.555 577.941 452.707 577.808 452.819 577.643C452.93 577.478 452.998 577.287 453.016 577.089C453.033 576.89 453 576.691 452.919 576.509C452.839 576.327 452.713 576.168 452.554 576.048L439.458 566.226C439.035 565.958 438.544 565.815 438.043 565.815C437.543 565.815 437.052 565.958 436.629 566.226Z" fill="#39434F"/>
<path d="M435.421 565.405L407.257 583.805C407.081 583.896 406.932 584.03 406.822 584.193C406.712 584.357 406.645 584.546 406.628 584.743C406.61 584.939 406.642 585.137 406.722 585.318C406.801 585.498 406.924 585.656 407.08 585.777L420.177 595.611C420.6 595.879 421.09 596.021 421.591 596.021C422.092 596.021 422.582 595.879 423.005 595.611L451.169 577.21C451.347 577.12 451.498 576.986 451.61 576.821C451.722 576.656 451.789 576.466 451.807 576.267C451.825 576.069 451.791 575.869 451.711 575.687C451.63 575.505 451.504 575.347 451.345 575.227L438.249 565.405C437.826 565.137 437.335 564.994 436.835 564.994C436.334 564.994 435.843 565.137 435.421 565.405Z" fill="#39434F"/>
<path d="M434.834 566.942L409.017 583.817C408.219 584.333 408.113 585.155 408.77 585.647L420.505 594.437C420.9 594.681 421.356 594.81 421.82 594.81C422.284 594.81 422.739 594.681 423.134 594.437L448.951 577.55C450.571 576.506 450.395 575.872 449.737 575.379L447.39 573.619C447.289 573.571 447.176 573.552 447.064 573.565C446.952 573.577 446.846 573.62 446.757 573.689H446.663C446.51 573.815 446.315 573.877 446.118 573.862C445.921 573.846 445.738 573.755 445.607 573.607L440.173 569.535C439.868 569.301 439.634 569.113 440.173 568.784L440.256 568.726C440.479 568.585 440.537 568.397 440.396 568.291L438.049 566.531C437.334 566.062 436.348 565.98 434.834 566.942Z" fill="white"/>
<path d="M442.755 570.627L444.234 571.801C444.264 571.818 444.298 571.827 444.333 571.827C444.368 571.827 444.403 571.818 444.433 571.801C444.443 571.792 444.451 571.781 444.457 571.769C444.462 571.757 444.465 571.744 444.465 571.73C444.465 571.717 444.462 571.704 444.457 571.692C444.451 571.679 444.443 571.669 444.433 571.66L442.943 570.557C442.916 570.536 442.883 570.524 442.849 570.524C442.815 570.524 442.782 570.536 442.755 570.557C442.708 570.533 442.708 570.592 442.755 570.627Z" fill="white"/>
<path d="M421.667 578.443L431.619 585.906L442.72 578.677L432.757 571.202L421.667 578.443Z" fill="#96D3FF"/>
<path d="M423.991 582.738L429.8 587.103L430.457 586.669L424.648 582.315L423.991 582.738Z" fill="#B3BECD"/>
<path d="M421.855 582.632L428.732 587.796L429.06 587.584L422.172 582.421L421.855 582.632Z" fill="#B3BECD"/>
<path d="M421.257 583.019L428.134 588.182L428.462 587.971L421.574 582.808L421.257 583.019Z" fill="#B3BECD"/>
<path d="M420.658 583.418L427.535 588.57L427.864 588.359L420.987 583.195L420.658 583.418Z" fill="#B3BECD"/>
<path d="M444.856 575.544L446.1 576.471L446.358 576.295L445.126 575.368L444.856 575.544Z" fill="#B3BECD"/>
<path d="M444.363 575.861L445.595 576.788L445.865 576.612L444.633 575.685L444.363 575.861Z" fill="#B3BECD"/>
<path d="M443.87 576.178L445.114 577.117L445.372 576.941L444.14 576.002L443.87 576.178Z" fill="#B3BECD"/>
<path d="M420.142 579.592C420.103 579.742 420.103 579.9 420.142 580.05C420.364 580.084 420.589 580.084 420.811 580.05C421.245 580.05 421.574 579.768 421.339 579.58C421.104 579.392 420.787 579.58 420.787 579.58C420.787 579.58 421.057 579.357 420.858 579.216C420.658 579.076 420.224 579.287 420.142 579.592Z" fill="#96D3FF"/>
<path d="M413.148 585.343L421.174 591.375L423.744 589.709L415.706 583.677L413.148 585.343Z" fill="#96D3FF"/>
<path d="M395.756 620.383C397.915 620.383 416.081 615.877 421.573 612.791C427.457 609.652 432.792 605.578 437.369 600.727C444.55 593.029 448.787 587.021 448.928 583.7C449.08 579.839 448.928 579.158 434.411 590.999C426.197 597.688 420.916 596.866 416.691 595.27C399.324 588.652 382.589 593.17 382.589 593.17C382.589 593.17 387.448 620.36 395.756 620.383Z" fill="#FFC4C0"/>
<path d="M418.839 595.963C414.415 594.45 431.947 590.671 433.966 585.73C435.984 580.79 430.48 580.614 425.669 582.022C408.771 587.033 398.854 582.926 388.704 589.873C387.624 590.6 384.444 592.22 384.385 592.736C383.904 597.595 418.839 595.963 418.839 595.963Z" fill="#FFC4C0"/>
<path d="M407.726 585.061C404.598 584.752 401.443 584.843 398.338 585.331C395.491 585.952 392.79 587.116 390.382 588.757C390.276 588.816 390.382 588.992 390.476 588.933C395.686 585.8 401.823 585.495 407.726 585.202C407.745 585.202 407.763 585.194 407.776 585.181C407.789 585.168 407.796 585.15 407.796 585.131C407.796 585.112 407.789 585.095 407.776 585.081C407.763 585.068 407.745 585.061 407.726 585.061Z" fill="#39434F"/>
<path d="M321.966 573.338L332.645 571.331L346.094 568.808C346.094 568.808 342.937 553.834 339.053 544.493C335.086 534.894 328.491 531.76 324.865 544.951C321.344 557.918 321.966 573.338 321.966 573.338Z" fill="#96D3FF"/>
<path d="M322.917 568.491C327.024 567.564 342.104 564.349 344.111 564.665C344.111 564.665 344.181 564.818 344.111 564.841C342.339 565.839 327.095 568.174 322.929 568.737C322.882 568.749 322.835 568.515 322.917 568.491Z" fill="#39434F"/>
<path d="M323.903 572.974C323.269 573.161 322.635 573.326 322.001 573.49H321.825V573.291C321.661 571.612 321.638 569.923 321.638 568.245C321.638 566.566 321.72 564.877 321.837 563.198C321.955 561.52 322.107 559.842 322.342 558.176C322.576 556.509 322.823 554.855 323.175 553.2C323.175 554.89 323.058 556.556 322.975 558.235C322.893 559.913 322.788 561.579 322.694 563.257C322.518 566.59 322.283 569.934 322.142 573.279L321.955 573.138C322.588 573.103 323.245 573.021 323.903 572.974Z" fill="#39434F"/>
<path d="M321.086 556.968C321.421 557.986 321.672 559.03 321.837 560.089C321.919 560.617 322.002 561.145 322.049 561.674C322.105 562.211 322.133 562.752 322.131 563.293C321.71 562.298 321.418 561.253 321.262 560.183C321.074 559.122 321.015 558.043 321.086 556.968Z" fill="#39434F"/>
<path d="M345.202 568.973L346.07 568.715L346 568.832C345.542 567.436 345.178 566.027 344.768 564.631L343.676 560.406C342.972 557.59 342.315 554.774 341.705 551.91C342.319 553.237 342.848 554.601 343.289 555.994C343.77 557.379 344.146 558.787 344.463 560.195C344.779 561.603 345.143 563.035 345.425 564.467C345.706 565.898 345.953 567.33 346.129 568.785V568.891H346.035C345.812 568.938 345.507 568.949 345.202 568.973Z" fill="#39434F"/>
<path d="M343.899 554.737C344.159 555.525 344.294 556.349 344.298 557.178C344.306 557.594 344.278 558.011 344.216 558.422C344.165 558.826 344.059 559.221 343.899 559.596C343.779 558.787 343.716 557.972 343.711 557.155C343.69 556.345 343.753 555.534 343.899 554.737Z" fill="#39434F"/>
<path d="M417.836 459.046C417.951 460.39 417.666 461.738 417.015 462.919C416.364 464.101 415.377 465.063 414.18 465.683C412.982 466.304 411.627 466.556 410.287 466.406C408.946 466.257 407.68 465.713 406.648 464.844C405.617 463.975 404.866 462.819 404.492 461.523C404.117 460.228 404.135 458.85 404.544 457.564C404.952 456.279 405.733 455.143 406.787 454.301C407.841 453.46 409.121 452.949 410.465 452.835C411.357 452.758 412.255 452.857 413.109 453.128C413.962 453.398 414.754 453.834 415.439 454.411C416.123 454.988 416.688 455.694 417.099 456.49C417.51 457.285 417.761 458.154 417.836 459.046Z" fill="white"/>
<path d="M417.836 459.045C417.99 460.871 417.434 462.685 416.283 464.11C415.132 465.535 413.475 466.46 411.658 466.693C410.721 466.791 409.774 466.701 408.872 466.429C407.97 466.156 407.132 465.707 406.405 465.108C405.679 464.508 405.079 463.769 404.641 462.935C404.203 462.101 403.935 461.188 403.854 460.25C403.772 459.311 403.879 458.366 404.166 457.469C404.454 456.572 404.918 455.741 405.53 455.025C406.142 454.309 406.891 453.722 407.733 453.299C408.574 452.875 409.492 452.623 410.431 452.558C412.264 452.474 414.059 453.103 415.439 454.312C416.819 455.521 417.678 457.217 417.836 459.045ZM417.836 459.045C417.763 458.166 417.512 457.31 417.098 456.53C416.685 455.749 416.117 455.061 415.43 454.506C414.744 453.952 413.951 453.542 413.102 453.302C412.252 453.062 411.362 452.997 410.487 453.111C408.82 453.347 407.306 454.208 406.252 455.52C405.197 456.831 404.68 458.495 404.806 460.173C404.953 461.854 405.742 463.414 407.01 464.528C408.279 465.642 409.928 466.223 411.614 466.152C412.496 466.113 413.361 465.897 414.157 465.515C414.953 465.132 415.663 464.593 416.244 463.929C416.826 463.265 417.267 462.49 417.54 461.65C417.814 460.811 417.914 459.925 417.836 459.045Z" fill="#39434F"/>
<path d="M403.137 471.612C403.2 472.358 403.04 473.106 402.678 473.762C402.315 474.417 401.767 474.951 401.102 475.295C400.437 475.639 399.684 475.779 398.94 475.696C398.196 475.613 397.493 475.311 396.919 474.829C396.346 474.347 395.929 473.706 395.72 472.986C395.511 472.267 395.52 471.502 395.745 470.788C395.97 470.073 396.402 469.442 396.986 468.973C397.57 468.504 398.28 468.218 399.026 468.152C400.03 468.067 401.027 468.383 401.797 469.031C402.568 469.68 403.05 470.608 403.137 471.612Z" fill="white"/>
<path d="M403.137 471.612C403.232 472.647 402.929 473.679 402.291 474.5C401.653 475.321 400.727 475.868 399.7 476.032C398.893 476.157 398.068 476.036 397.33 475.686C396.592 475.336 395.977 474.773 395.563 474.069C395.149 473.365 394.956 472.553 395.009 471.738C395.061 470.924 395.357 470.143 395.859 469.499C396.36 468.854 397.043 468.375 397.82 468.123C398.596 467.871 399.431 467.858 400.215 468.085C400.999 468.313 401.697 468.771 402.218 469.399C402.739 470.028 403.059 470.799 403.137 471.612ZM403.137 471.612C403.09 471.119 402.942 470.64 402.703 470.207C402.463 469.774 402.137 469.394 401.745 469.092C401.2 468.684 400.549 468.442 399.87 468.396C399.192 468.35 398.514 468.501 397.919 468.832C397.324 469.162 396.838 469.657 396.519 470.258C396.199 470.859 396.06 471.539 396.119 472.217C396.178 472.895 396.431 473.541 396.849 474.078C397.267 474.615 397.831 475.02 398.474 475.243C399.116 475.467 399.81 475.499 400.471 475.337C401.132 475.175 401.731 474.826 402.198 474.33C402.532 473.965 402.788 473.536 402.95 473.068C403.111 472.601 403.175 472.105 403.137 471.612Z" fill="#39434F"/>
<path d="M468.828 427.339C469.253 430.803 468.759 434.318 467.396 437.531C466.034 440.743 463.85 443.541 461.064 445.643C458.278 447.745 454.988 449.077 451.524 449.505C448.061 449.933 444.546 449.443 441.332 448.083C439.768 450.117 437.758 451.763 435.455 452.895C433.153 454.026 430.621 454.612 428.056 454.606C425.491 454.601 422.961 454.005 420.664 452.864C418.366 451.723 416.362 450.068 414.808 448.028C414.087 448.249 413.347 448.404 412.598 448.492C409.996 448.817 407.356 448.38 404.997 447.234C402.639 446.088 400.664 444.282 399.311 442.036C397.959 439.789 397.287 437.199 397.378 434.579C397.469 431.958 398.318 429.42 399.822 427.273C396.852 423.545 395.319 418.875 395.502 414.112C395.685 409.349 397.572 404.811 400.82 401.322C404.068 397.834 408.46 395.627 413.197 395.104C417.935 394.581 422.703 395.776 426.633 398.473C428.475 396.17 430.895 394.397 433.645 393.332C436.395 392.268 439.378 391.951 442.291 392.414C445.203 392.876 447.941 394.102 450.226 395.966C452.511 397.83 454.262 400.266 455.301 403.026C455.997 402.79 456.715 402.627 457.445 402.54C459.659 402.267 461.904 402.68 463.877 403.722C465.85 404.765 467.457 406.386 468.48 408.369C469.503 410.352 469.895 412.601 469.601 414.813C469.308 417.025 468.343 419.094 466.838 420.741C467.889 422.805 468.563 425.039 468.828 427.339Z" fill="white"/>
<path d="M468.828 427.339C469.24 430.801 468.749 434.312 467.402 437.528C466.716 439.129 465.837 440.64 464.783 442.026C463.707 443.389 462.463 444.611 461.08 445.662C458.289 447.782 454.991 449.134 451.515 449.586C448.039 450.038 444.506 449.573 441.265 448.237H441.453C439.872 450.313 437.834 451.998 435.497 453.16C433.161 454.322 430.588 454.93 427.978 454.938C425.368 454.945 422.792 454.352 420.449 453.203C418.105 452.054 416.058 450.382 414.465 448.314L414.863 448.447C413.488 448.863 412.056 449.06 410.619 449.033C409.179 449.031 407.749 448.792 406.386 448.326C403.629 447.402 401.227 445.645 399.512 443.297C398.679 442.116 398.02 440.821 397.556 439.451C397.112 438.075 396.874 436.642 396.849 435.196C396.822 432.277 397.707 429.422 399.38 427.029V427.604C396.362 423.781 394.815 419.003 395.018 414.137C395.22 409.271 397.16 404.639 400.485 401.08C403.818 397.539 408.297 395.292 413.128 394.737C417.948 394.22 422.794 395.447 426.788 398.196L426.301 398.273C428.194 395.939 430.674 394.151 433.486 393.09C436.298 392.03 439.341 391.736 442.304 392.239C445.242 392.728 448 393.983 450.297 395.879C452.595 397.775 454.351 400.244 455.389 403.036L455.245 402.97C457.563 402.22 460.064 402.251 462.362 403.058C464.071 403.664 465.603 404.684 466.821 406.026C468.039 407.369 468.906 408.992 469.344 410.751C469.782 412.51 469.777 414.35 469.33 416.107C468.883 417.863 468.008 419.482 466.783 420.818C467.844 422.854 468.537 425.061 468.828 427.339ZM468.828 427.339C468.555 425.025 467.87 422.779 466.805 420.708C468.014 419.377 468.873 417.767 469.306 416.022C469.739 414.277 469.732 412.452 469.287 410.711C468.841 408.969 467.97 407.366 466.752 406.044C465.534 404.722 464.006 403.722 462.307 403.136C460.044 402.357 457.586 402.357 455.323 403.136H455.212V403.025C454.158 400.305 452.404 397.911 450.128 396.085C447.866 394.25 445.152 393.055 442.271 392.626C439.408 392.184 436.478 392.51 433.783 393.573C431.088 394.635 428.723 396.394 426.931 398.671L426.732 398.936L426.445 398.737C422.583 396.166 417.932 395.052 413.324 395.594C408.716 396.137 404.451 398.301 401.292 401.699C398.168 405.103 396.351 409.504 396.163 414.121C395.974 418.737 397.427 423.271 400.264 426.919L400.496 427.217L400.275 427.538C398.712 429.747 397.881 432.391 397.899 435.097C397.909 436.443 398.121 437.781 398.529 439.064C398.952 440.343 399.558 441.553 400.33 442.656C401.922 444.855 404.146 446.517 406.707 447.419C407.985 447.874 409.329 448.116 410.685 448.138C412.041 448.188 413.395 448.02 414.697 447.64L414.94 447.563L415.106 447.773C416.622 449.777 418.572 451.413 420.809 452.558C424.219 454.282 428.123 454.766 431.851 453.927C435.579 453.088 438.899 450.979 441.243 447.961L441.32 447.861H441.431C444.617 449.239 448.112 449.746 451.559 449.331C455.005 448.915 458.28 447.592 461.047 445.496C462.43 444.454 463.677 443.244 464.761 441.894C465.815 440.533 466.698 439.048 467.391 437.473C468.735 434.275 469.23 430.784 468.828 427.339Z" fill="#39434F"/>
<path d="M443.078 426.798L442.448 429.815C442.4 430.12 442.29 430.412 442.123 430.672C441.955 430.932 441.736 431.154 441.477 431.324C441.219 431.494 440.928 431.607 440.623 431.658C440.318 431.708 440.006 431.694 439.707 431.616C439.408 431.554 439.123 431.434 438.871 431.262C438.618 431.09 438.402 430.87 438.235 430.614C438.067 430.359 437.952 430.072 437.895 429.772C437.839 429.472 437.842 429.163 437.905 428.864L438.911 424.035C438.911 424.035 438.911 424.035 438.977 423.957C439.044 423.88 438.977 423.957 438.977 423.847C439.12 423.253 439.485 422.736 439.997 422.403C440.509 422.07 441.129 421.946 441.729 422.056C443.11 422.35 444.55 422.082 445.734 421.313C446.917 420.544 447.747 419.337 448.04 417.956C448.333 416.576 448.065 415.135 447.297 413.952C446.528 412.769 445.32 411.939 443.94 411.646C443.037 411.459 442.1 411.511 441.224 411.798C440.348 412.085 439.562 412.597 438.944 413.282C438.746 413.529 438.5 413.733 438.22 413.882C437.94 414.031 437.633 414.121 437.317 414.147C437.001 414.173 436.683 414.135 436.383 414.034C436.082 413.933 435.806 413.772 435.57 413.561C435.333 413.35 435.143 413.092 435.009 412.805C434.876 412.517 434.803 412.206 434.794 411.889C434.785 411.572 434.84 411.257 434.957 410.962C435.074 410.668 435.25 410.4 435.474 410.176C436.573 408.949 437.96 408.013 439.509 407.454C441.059 406.895 442.723 406.73 444.353 406.973C445.982 407.216 447.526 407.861 448.845 408.848C450.163 409.835 451.217 411.134 451.909 412.629C452.602 414.124 452.912 415.767 452.813 417.412C452.713 419.056 452.207 420.65 451.339 422.051C450.471 423.451 449.269 424.614 447.84 425.435C446.412 426.255 444.802 426.709 443.155 426.753L443.078 426.798ZM440.967 436.965L440.79 437.805C440.734 438.107 440.617 438.395 440.446 438.65C440.276 438.906 440.056 439.125 439.799 439.293C439.541 439.461 439.253 439.576 438.95 439.63C438.648 439.684 438.337 439.676 438.038 439.606C437.437 439.476 436.91 439.114 436.573 438.6C436.236 438.085 436.115 437.458 436.237 436.854L436.413 436.015C436.551 435.419 436.915 434.9 437.429 434.567C437.943 434.235 438.565 434.116 439.165 434.235C439.765 434.36 440.291 434.717 440.629 435.229C440.966 435.74 441.088 436.364 440.967 436.965Z" fill="#96D3FF"/>
<path d="M418.93 420.664L418.609 417.658C418.554 417.352 418.564 417.038 418.639 416.737C418.713 416.435 418.85 416.153 419.041 415.908C419.232 415.663 419.472 415.461 419.746 415.315C420.02 415.169 420.322 415.082 420.632 415.061C421.243 414.989 421.857 415.161 422.341 415.54C422.825 415.918 423.141 416.473 423.218 417.083L423.826 421.979C423.826 421.979 423.826 421.979 423.826 422.078C423.826 422.178 423.826 422.078 423.881 422.167C423.941 422.775 423.765 423.384 423.388 423.865C423.012 424.347 422.464 424.665 421.859 424.753C421.146 424.813 420.452 425.016 419.82 425.351C419.187 425.685 418.629 426.144 418.178 426.7C417.727 427.255 417.393 427.896 417.196 428.584C416.998 429.272 416.942 429.992 417.03 430.702C417.117 431.412 417.348 432.098 417.707 432.717C418.066 433.335 418.546 433.876 419.118 434.305C419.691 434.733 420.345 435.042 421.039 435.213C421.734 435.383 422.457 435.411 423.163 435.296C424.077 435.19 424.948 434.844 425.685 434.293C426.423 433.741 427.002 433.005 427.362 432.157C427.482 431.871 427.657 431.611 427.878 431.392C428.098 431.174 428.36 431.002 428.648 430.886C428.936 430.769 429.244 430.712 429.555 430.716C429.865 430.719 430.172 430.785 430.457 430.909C430.736 431.03 430.988 431.205 431.2 431.424C431.411 431.643 431.577 431.902 431.688 432.186C431.799 432.469 431.852 432.772 431.846 433.076C431.84 433.38 431.773 433.68 431.65 433.959C430.997 435.466 429.981 436.788 428.693 437.807C427.404 438.826 425.884 439.51 424.266 439.798C422.649 440.086 420.986 439.968 419.425 439.457C417.864 438.945 416.454 438.055 415.321 436.865C414.188 435.676 413.368 434.224 412.932 432.64C412.497 431.057 412.461 429.389 412.827 427.788C413.193 426.187 413.95 424.701 415.031 423.464C416.111 422.226 417.481 421.276 419.018 420.697L418.93 420.664ZM417.659 410.364L417.549 409.513C417.495 409.208 417.506 408.895 417.582 408.595C417.657 408.295 417.794 408.014 417.985 407.77C418.175 407.526 418.415 407.325 418.688 407.18C418.962 407.035 419.262 406.948 419.571 406.927C419.874 406.888 420.181 406.91 420.476 406.991C420.77 407.072 421.045 407.21 421.286 407.399C421.526 407.587 421.727 407.82 421.877 408.087C422.026 408.353 422.121 408.646 422.157 408.949L422.268 409.789C422.334 410.4 422.16 411.012 421.782 411.497C421.405 411.982 420.854 412.301 420.245 412.386C419.942 412.426 419.634 412.406 419.339 412.325C419.044 412.245 418.768 412.106 418.527 411.918C418.287 411.73 418.086 411.495 417.937 411.228C417.788 410.962 417.693 410.668 417.659 410.364Z" fill="#96D3FF"/>
<defs>
<linearGradient id="paint0_linear_4_78671" x1="195.5" y1="95" x2="195.5" y2="363" gradientUnits="userSpaceOnUse">
<stop stop-color="#A0AEC0" stop-opacity="0"/>
<stop offset="1" stop-color="#A0AEC0"/>
</linearGradient>
<linearGradient id="paint1_linear_4_78671" x1="305.86" y1="77" x2="305.86" y2="320" gradientUnits="userSpaceOnUse">
<stop stop-color="#A0AEC0" stop-opacity="0"/>
<stop offset="1" stop-color="#A0AEC0"/>
</linearGradient>
</defs>
</svg>
